<?xml version="1.0" encoding="UTF-8"?>
<svg id="Layer_2" data-name="Layer 2" xmlns="http://www.w3.org/2000/svg" viewBox="0 0 225.49 138.65">
  <defs>
    <style>
      .cls-1 {
        fill: #fff;
        stroke-width: 0px;
      }
    </style>
  </defs>
  <g id="Layer_7" data-name="Layer 7">
    <path class="cls-1" d="m0,0v138.65h225.49V0H0Zm219.63,123.15c-2.9.32-5.71.61-8.5.93-6.43.74-12.86,1.5-19.3,2.24-.79.09-1.59.09-2.39.12-9.42.38-18.79,1.33-28.13,2.76-3.59.55-7.26.47-10.88.82-5.77.56-11.52,1.29-17.29,1.86-9.7.96-19.42,1.76-29.12,2.81-5.97.65-11.99.48-17.94,1.82-3.85.87-7.92.71-11.89.88-6.44.28-12.89.8-19.31.58-8.05-.27-16.07-1.29-24.12-1.78-4.08-.25-8.18.1-12.26-.11-4.97-.25-9.93-.79-15.23-1.24-.24-4.77-.54-9.51-.72-14.26-.32-8.82-.58-17.65-.84-26.48-.21-7.22-.32-14.45-.58-21.67-.19-5.27-.57-10.52-.79-15.79-.07-1.71,0-3.44.14-5.14.05-.68.26-1.5.67-1.96,2.05-2.28,4.15-4.52,6.32-6.66,3.18-3.14,6.32-6.37,9.7-9.26,7.59-6.48,14.36-13.88,21.37-21.03,4.28-4.37,8.91-8.34,13.38-12.49,19.42,8.34,38.54,16.64,57.72,24.76,19.29,8.16,38.79,15.77,57.98,24.25,19.07,8.43,38.31,16.41,57.61,24.65-1.87,16.54-3.71,32.9-5.57,49.39Z"/>
  </g>
</svg>