<?xml version="1.0" encoding="UTF-8"?>
<svg id="Layer_2" data-name="Layer 2" xmlns="http://www.w3.org/2000/svg" viewBox="0 0 324.17 40.58">
  <defs>
    <style>
      .cls-1 {
        fill: #fff2cf;
        stroke-width: 0px;
      }
    </style>
  </defs>
  <g id="Layer_7" data-name="Layer 7">
    <g>
      <path class="cls-1" d="m14.79,0c5.57,2.39,11.04,4.76,16.54,7.09,5.53,2.34,11.12,4.51,16.61,6.94,5.46,2.41,10.98,4.7,16.51,7.06-.53,4.74-1.06,9.42-1.6,14.14-.83.09-1.63.17-2.44.27-1.84.21-3.69.43-5.53.64-.23.03-.46.03-.68.03-2.7.11-5.39.38-8.06.79-1.03.16-2.08.13-3.12.23-1.65.16-3.3.37-4.96.53-2.78.28-5.57.5-8.34.81-1.71.19-3.44.14-5.14.52-1.1.25-2.27.2-3.41.25-1.84.08-3.69.23-5.53.17-2.31-.08-4.61-.37-6.91-.51-1.17-.07-2.35.03-3.51-.03-1.43-.07-2.85-.23-4.37-.35-.07-1.37-.16-2.72-.21-4.08-.09-2.53-.17-5.05-.24-7.58-.06-2.07-.09-4.14-.17-6.21-.05-1.51-.16-3.01-.23-4.52-.02-.49,0-.98.04-1.47.01-.19.07-.43.19-.56.59-.65,1.19-1.29,1.81-1.91.91-.9,1.81-1.82,2.78-2.65,2.17-1.85,4.12-3.97,6.12-6.02,1.23-1.25,2.55-2.39,3.84-3.58Z"/>
      <path class="cls-1" d="m99.93,19.94l.03,4.51-15.88.1-.03-4.51,5.73-.04v-2.09s-5.66.04-5.66.04l-.1-15.53c0-.63.21-1.16.65-1.6.44-.43.98-.65,1.62-.66l13.54-.09.03,4.51-10.09.06c-.4,0-.69.18-.87.54-.18.35-.26.73-.26,1.12v.47s10.54-.07,10.54-.07l.03,4.51-10.54.07v1c.01.75.39,1.12,1.15,1.11l10.09-.06.03,4.51-5.58.04v2.09s5.57-.04,5.57-.04Zm-7.92,6c1.04,0,2.02.18,2.93.56.91.38,1.71.9,2.4,1.56.68.66,1.22,1.44,1.62,2.33.4.89.6,1.84.6,2.84,0,1-.18,1.95-.57,2.85-.39.9-.92,1.68-1.59,2.34-.68.66-1.47,1.19-2.38,1.58-.91.39-1.88.59-2.92.59-1.02,0-1.98-.18-2.89-.56-.9-.38-1.7-.89-2.38-1.55-.69-.65-1.22-1.43-1.62-2.32-.4-.89-.6-1.84-.6-2.84,0-1,.18-1.95.57-2.85.38-.9.91-1.68,1.59-2.35.68-.67,1.46-1.2,2.36-1.59.9-.39,1.86-.59,2.88-.59Zm.1,10.05c.38,0,.74-.07,1.08-.21s.63-.33.88-.58c.25-.25.45-.54.59-.87.15-.33.22-.69.22-1.06,0-.37-.08-.73-.23-1.06-.15-.33-.35-.62-.61-.87-.25-.24-.55-.44-.89-.58s-.7-.22-1.08-.21-.74.08-1.08.23c-.34.15-.63.35-.88.59s-.45.54-.59.87c-.15.33-.22.69-.22,1.06,0,.37.08.73.23,1.06s.35.62.61.87c.25.24.55.43.89.57.34.13.7.2,1.08.2Z"/>
      <path class="cls-1" d="m124.12.08l.1,14.41-4.59.03v-1.8s-5.21.03-5.21.03c-.66.57-1.4,1.03-2.23,1.35-.83.33-1.71.5-2.65.5-1.02,0-1.98-.18-2.87-.56-.89-.38-1.67-.89-2.34-1.53-.66-.64-1.19-1.41-1.59-2.29-.4-.88-.6-1.82-.6-2.82,0-1,.18-1.94.57-2.82.39-.88.91-1.64,1.56-2.29.66-.65,1.43-1.17,2.32-1.56.89-.39,1.84-.59,2.86-.59.9,0,1.75.14,2.54.43.79.29,1.51.69,2.15,1.19l5.4-.03V.11s4.58-.03,4.58-.03Zm-14.62,9.43c.6,0,1.11-.22,1.54-.64.43-.42.64-.93.64-1.52,0-.59-.22-1.09-.66-1.51-.43-.42-.95-.63-1.55-.62-.6,0-1.11.22-1.54.64-.43.43-.64.93-.63,1.52,0,.59.22,1.09.65,1.51.43.42.95.63,1.55.62Zm7.99,18.95c-.9,0-1.75-.16-2.54-.48-.79-.33-1.49-.78-2.1-1.36-.6-.58-1.08-1.26-1.42-2.04-.35-.78-.52-1.62-.53-2.5,0-.88.16-1.71.49-2.49.33-.78.8-1.46,1.4-2.06.6-.59,1.29-1.06,2.08-1.4.79-.34,1.63-.51,2.53-.52s1.75.16,2.56.48c.8.33,1.51.79,2.11,1.37.6.59,1.08,1.27,1.42,2.04.35.77.52,1.6.53,2.49,0,.88-.16,1.72-.49,2.51-.34.79-.8,1.47-1.4,2.06-.6.58-1.29,1.04-2.09,1.38-.8.34-1.65.51-2.55.52Zm-.05-8.31c-.52,0-.97.19-1.35.57-.38.38-.57.82-.56,1.33,0,.53.2.98.58,1.35.38.37.83.55,1.35.55.54,0,1-.19,1.38-.57.38-.38.56-.83.56-1.36,0-.51-.2-.95-.58-1.32-.38-.37-.84-.55-1.38-.55Zm2.13-13.92l-2.79.02c.06.35.09.71.1,1.06,0,.16,0,.31-.01.46s-.02.3-.04.46l2.76-.02v-1.97Z"/>
      <path class="cls-1" d="m144.73,11.58l.02,2.48,5.88-.04.03,4.51-15.88.1-.03-4.51,5.4-.03-.02-2.48-5.25.03-.06-9.22c0-.65.21-1.18.65-1.59.42-.44.95-.65,1.59-.66l13.45-.09.03,4.45-10.03.06c-.36,0-.63.12-.82.36-.19.24-.29.55-.31.94.02.33.13.63.32.88.19.25.47.38.83.38l10.03-.06.03,4.45-5.85.04Zm-2.08,8.41c1.04,0,2.02.18,2.93.56.91.38,1.71.9,2.4,1.56.68.66,1.22,1.44,1.62,2.33.4.89.6,1.84.6,2.84,0,1-.18,1.95-.57,2.85-.39.9-.92,1.68-1.59,2.34-.68.66-1.47,1.19-2.38,1.58-.91.39-1.88.59-2.92.59-1.02,0-1.98-.18-2.89-.56-.9-.38-1.7-.89-2.38-1.55-.69-.65-1.23-1.43-1.62-2.32-.4-.89-.6-1.84-.6-2.84,0-1,.18-1.95.57-2.85.38-.9.91-1.68,1.59-2.35.68-.67,1.46-1.2,2.36-1.59.9-.39,1.86-.59,2.88-.59Zm.1,10.05c.38,0,.74-.07,1.08-.21s.63-.33.88-.58c.25-.25.45-.54.59-.87s.22-.69.22-1.06c0-.37-.08-.73-.23-1.06-.15-.33-.35-.62-.61-.87-.25-.24-.55-.44-.89-.58s-.7-.22-1.08-.21-.74.08-1.08.23-.63.35-.88.59-.45.54-.59.87c-.15.33-.22.69-.22,1.06,0,.37.08.73.23,1.06s.35.62.61.87c.25.24.55.43.89.57s.7.2,1.08.2Z"/>
      <path class="cls-1" d="m173.87,14.54l-20.23.13-.03-4.48,3.27-.02-.04-5.45-3.27.02v-2.24c-.02-.63.2-1.16.64-1.6.44-.43.98-.65,1.62-.66l17.95-.11.03,4.48-3.27.02.04,5.45,3.27-.02.03,4.48Zm-7.9-9.88l-4.56.03.04,5.45,4.56-.03-.04-5.45Zm16.06,9.83l-4.59.03-.1-14.41,4.59-.03.1,14.41Z"/>
      <path class="cls-1" d="m184.4,22.6l-.07-10.99c0-.65.21-1.19.65-1.62.44-.44.99-.65,1.65-.66h.51s.03-.03.03-.03h1.68c.78-.02,1.17-.39,1.16-1.14v-1.94c-.02-.75-.41-1.12-1.19-1.11l-4.53.03-.03-4.54,10.33-.07.09,13.29-4.56.03c-.76,0-1.14.38-1.13,1.13v1.94c.02.77.4,1.15,1.16,1.14l4.56-.03.03,4.51-10.33.07Zm12.4,13.89c-.9,0-1.75-.16-2.54-.48-.79-.33-1.49-.78-2.1-1.36-.6-.58-1.08-1.26-1.42-2.04-.35-.78-.52-1.62-.53-2.5,0-.88.16-1.71.49-2.49.34-.78.8-1.46,1.4-2.06.6-.59,1.29-1.06,2.08-1.4.79-.34,1.63-.51,2.53-.52.9,0,1.75.16,2.55.48.8.33,1.51.79,2.11,1.37.6.59,1.08,1.27,1.42,2.04.35.77.52,1.6.53,2.49,0,.88-.16,1.72-.49,2.51-.34.79-.8,1.47-1.4,2.06-.6.58-1.29,1.04-2.09,1.38-.8.34-1.65.51-2.55.52Zm-.05-8.31c-.52,0-.97.19-1.35.57-.38.38-.57.82-.56,1.33,0,.53.2.98.58,1.35.38.37.83.55,1.35.55.54,0,1-.19,1.38-.57.38-.38.56-.83.56-1.36,0-.51-.2-.95-.58-1.32-.38-.37-.84-.55-1.38-.55Zm9.51-18.55l-3.39.02.03,4.86-4.56.03-.1-14.44,4.56-.03.03,5.07,3.39-.02.03,4.51Z"/>
      <path class="cls-1" d="m238.85,1.39l.1,14.41-4.56.03v-1.8s-4.54.03-4.54.03v1.68s-12.27.08-12.27.08l-.1-15.67,4.62-.03.02,3.27,3.03-.02-.02-3.27h2.28c.66-.02,1.22.2,1.68.65.44.47.67,1.01.67,1.62v.71s4.54-.03,4.54-.03v-1.62s4.55-.03,4.55-.03Zm-13.67,6.54l-3.03.02.02,3.27,3.03-.02-.02-3.27Zm13.69,19.21c0,.61-.21,1.15-.65,1.62-.48.43-1.03.65-1.65.66h-2.28s-.04-6.61-.04-6.61c0-.75-.39-1.12-1.15-1.11l-6.93.04-.03-4.51,12.67-.08.07,9.99Zm-4.54-19.59l-4.53.03v1.97s4.55-.03,4.55-.03v-1.97Z"/>
      <path class="cls-1" d="m254.38,8.1h-1.2c.67,1.04,1.01,2.18,1.01,3.42,0,1.41-.39,2.67-1.19,3.76-.8,1.1-1.84,1.87-3.12,2.33h.24s.02,2.47.02,2.47l4.56-.03.03,4.51-13.48.09-.03-4.51,4.32-.03-.02-2.42c-.64-.21-1.24-.52-1.79-.92-.55-.4-1.03-.86-1.42-1.39-.39-.53-.7-1.12-.93-1.76-.23-.65-.34-1.32-.34-2.03,0-1.24.31-2.38.97-3.42h-1.2s-.03-4.53-.03-4.53l4.71-.03-.02-3.03,4.62-.03.02,3.03,4.23-.03.03,4.54Zm-6.75,5.38c.54,0,1-.19,1.38-.57.38-.38.57-.83.56-1.36,0-.53-.2-.98-.58-1.35-.38-.37-.84-.55-1.38-.55-.54,0-1,.19-1.38.57-.38.38-.57.83-.56,1.36,0,.53.2.98.58,1.35.38.37.84.55,1.38.55Zm17.52-3.87l-3.36.02.03,4.86-4.59.03-.1-14.41,4.59-.03.03,5.04,3.36-.02.03,4.51Z"/>
      <path class="cls-1" d="m292.92,13.94l-4.27,2.83-2.03-3.23-3.19-5.08-3.12,5.12-1.96,3.25-2.26-1.14c-.3-.17-.58-.34-.84-.5-.26-.16-.44-.38-.55-.67-.22-.57-.14-1.18.26-1.83l.59-.98,2.52-4.11.39-.65.03-.03-3.63.02-.03-4.51,6.24-.04V.11s4.58-.03,4.58-.03v2.3s6.89-.04,6.89-.04l.03,4.51-4.2.03v.03l.42.65,2.55,4.08,1.58,2.32Zm-11.79,10.45v-1.59s-5.56.04-5.56.04l-.03-4.51,15.88-.1.03,4.51-5.73.04v1.59s5.47-.03,5.47-.03l.06,9.22c0,.65-.21,1.19-.65,1.62-.44.44-.98.65-1.62.66h-2.28s-.04-5.82-.04-5.82c0-.77-.4-1.15-1.18-1.14l-10.03.06-.03-4.51,5.7-.04Z"/>
      <path class="cls-1" d="m314.02.14l4.14-.03.1,14.41-4.14.03-.03-4.95-2.49.02,1.42,2.11-4.3,2.83-2-3.23-3.19-5.08-3.12,5.12-1.99,3.25-2.23-1.13c-.32-.17-.61-.34-.86-.5-.25-.16-.43-.38-.53-.67-.22-.57-.14-1.18.26-1.83l.59-.98,2.49-4.11.42-.65v-.03l-3.63.02-.03-4.51,17.74-.11.03,4.51-4.23.03.03.03.39.65,1.91,3.02-.02-3.33,3.3-.02-.03-4.86Zm10.05-.06l.1,14.41-4.14.03-.1-14.41,4.14-.03Z"/>
    </g>
  </g>
</svg>